<?xml version="1.0" encoding="utf-8" standalone="no"?>
<!DOCTYPE svg PUBLIC "-//W3C//DTD SVG 1.1//EN"
  "http://www.w3.org/Graphics/SVG/1.1/DTD/svg11.dtd">
<svg xmlns:xlink="http://www.w3.org/1999/xlink" width="856.90303pt" height="322.896706pt" viewBox="0 0 856.90303 322.896706" xmlns="http://www.w3.org/2000/svg" version="1.1">
 <metadata>
  <rdf:RDF xmlns:dc="http://purl.org/dc/elements/1.1/" xmlns:cc="http://creativecommons.org/ns#" xmlns:rdf="http://www.w3.org/1999/02/22-rdf-syntax-ns#">
   <cc:Work>
    <dc:type rdf:resource="http://purl.org/dc/dcmitype/StillImage"/>
    <dc:date>2026-07-30T00:58:17.445971</dc:date>
    <dc:format>image/svg+xml</dc:format>
    <dc:creator>
     <cc:Agent>
      <dc:title>Matplotlib v3.11.0, https://matplotlib.org/</dc:title>
     </cc:Agent>
    </dc:creator>
   </cc:Work>
  </rdf:RDF>
 </metadata>
 <defs>
  <style type="text/css">*{stroke-linejoin: round; stroke-linecap: butt}</style>
 </defs>
 <g id="figure_1">
  <g id="patch_1">
   <path d="M 0 322.896706
L 856.90303 322.896706
L 856.90303 0
L 0 0
z
" style="fill: #ffffff"/>
  </g>
  <g id="axes_1">
   <g id="patch_2">
    <path d="M 55.844844 285.196706
L 263.653134 285.196706
L 263.653134 77.388415
L 55.844844 77.388415
z
" style="fill: #ffffff"/>
   </g>
   <g id="matplotlib.axis_1">
    <g id="xtick_1">
     <g id="line2d_1">
      <defs>
       <path id="m0950bd5f28" d="M 0 0
L 0 3.5
" style="stroke: #000000; stroke-width: 0.8"/>
      </defs>
      <g>
       <use xlink:href="#m0950bd5f28" x="60.79266" y="285.196706" style="stroke: #000000; stroke-width: 0.8"/>
      </g>
     </g>
     <g id="text_1">
      <text style="font-size: 9px; font-family: 'Meiryo', 'Yu Gothic', 'Hiragino Sans', 'Noto Sans JP', 'DejaVu Sans', sans-serif; text-anchor: middle" x="60.79266" y="300.098073" transform="rotate(-0 60.79266 300.098073)">−1.0</text>
     </g>
    </g>
    <g id="xtick_2">
     <g id="line2d_2">
      <g>
       <use xlink:href="#m0950bd5f28" x="110.270825" y="285.196706" style="stroke: #000000; stroke-width: 0.8"/>
      </g>
     </g>
     <g id="text_2">
      <text style="font-size: 9px; font-family: 'Meiryo', 'Yu Gothic', 'Hiragino Sans', 'Noto Sans JP', 'DejaVu Sans', sans-serif; text-anchor: middle" x="110.270825" y="300.098073" transform="rotate(-0 110.270825 300.098073)">−0.5</text>
     </g>
    </g>
    <g id="xtick_3">
     <g id="line2d_3">
      <g>
       <use xlink:href="#m0950bd5f28" x="159.748989" y="285.196706" style="stroke: #000000; stroke-width: 0.8"/>
      </g>
     </g>
     <g id="text_3">
      <text style="font-size: 9px; font-family: 'Meiryo', 'Yu Gothic', 'Hiragino Sans', 'Noto Sans JP', 'DejaVu Sans', sans-serif; text-anchor: middle" x="159.748989" y="300.098073" transform="rotate(-0 159.748989 300.098073)">0.0</text>
     </g>
    </g>
    <g id="xtick_4">
     <g id="line2d_4">
      <g>
       <use xlink:href="#m0950bd5f28" x="209.227154" y="285.196706" style="stroke: #000000; stroke-width: 0.8"/>
      </g>
     </g>
     <g id="text_4">
      <text style="font-size: 9px; font-family: 'Meiryo', 'Yu Gothic', 'Hiragino Sans', 'Noto Sans JP', 'DejaVu Sans', sans-serif; text-anchor: middle" x="209.227154" y="300.098073" transform="rotate(-0 209.227154 300.098073)">0.5</text>
     </g>
    </g>
    <g id="xtick_5">
     <g id="line2d_5">
      <g>
       <use xlink:href="#m0950bd5f28" x="258.705318" y="285.196706" style="stroke: #000000; stroke-width: 0.8"/>
      </g>
     </g>
     <g id="text_5">
      <text style="font-size: 9px; font-family: 'Meiryo', 'Yu Gothic', 'Hiragino Sans', 'Noto Sans JP', 'DejaVu Sans', sans-serif; text-anchor: middle" x="258.705318" y="300.098073" transform="rotate(-0 258.705318 300.098073)">1.0</text>
     </g>
    </g>
    <g id="text_6">
     <text style="font-size: 10.5px; font-family: 'Meiryo', 'Yu Gothic', 'Hiragino Sans', 'Noto Sans JP', 'DejaVu Sans', sans-serif; text-anchor: middle" x="159.748989" y="314.414968" transform="rotate(-0 159.748989 314.414968)">NRC語彙規範値</text>
    </g>
   </g>
   <g id="matplotlib.axis_2">
    <g id="ytick_1">
     <g id="line2d_6">
      <defs>
       <path id="m59e283c310" d="M 0 0
L -3.5 0
" style="stroke: #000000; stroke-width: 0.8"/>
      </defs>
      <g>
       <use xlink:href="#m59e283c310" x="55.844844" y="280.248889" style="stroke: #000000; stroke-width: 0.8"/>
      </g>
     </g>
     <g id="text_7">
      <text style="font-size: 9px; font-family: 'Meiryo', 'Yu Gothic', 'Hiragino Sans', 'Noto Sans JP', 'DejaVu Sans', sans-serif; text-anchor: end" x="48.844844" y="284.199573" transform="rotate(-0 48.844844 284.199573)">−1.00</text>
     </g>
    </g>
    <g id="ytick_2">
     <g id="line2d_7">
      <g>
       <use xlink:href="#m59e283c310" x="55.844844" y="255.509807" style="stroke: #000000; stroke-width: 0.8"/>
      </g>
     </g>
     <g id="text_8">
      <text style="font-size: 9px; font-family: 'Meiryo', 'Yu Gothic', 'Hiragino Sans', 'Noto Sans JP', 'DejaVu Sans', sans-serif; text-anchor: end" x="48.844844" y="259.460491" transform="rotate(-0 48.844844 259.460491)">−0.75</text>
     </g>
    </g>
    <g id="ytick_3">
     <g id="line2d_8">
      <g>
       <use xlink:href="#m59e283c310" x="55.844844" y="230.770725" style="stroke: #000000; stroke-width: 0.8"/>
      </g>
     </g>
     <g id="text_9">
      <text style="font-size: 9px; font-family: 'Meiryo', 'Yu Gothic', 'Hiragino Sans', 'Noto Sans JP', 'DejaVu Sans', sans-serif; text-anchor: end" x="48.844844" y="234.721409" transform="rotate(-0 48.844844 234.721409)">−0.50</text>
     </g>
    </g>
    <g id="ytick_4">
     <g id="line2d_9">
      <g>
       <use xlink:href="#m59e283c310" x="55.844844" y="206.031643" style="stroke: #000000; stroke-width: 0.8"/>
      </g>
     </g>
     <g id="text_10">
      <text style="font-size: 9px; font-family: 'Meiryo', 'Yu Gothic', 'Hiragino Sans', 'Noto Sans JP', 'DejaVu Sans', sans-serif; text-anchor: end" x="48.844844" y="209.982326" transform="rotate(-0 48.844844 209.982326)">−0.25</text>
     </g>
    </g>
    <g id="ytick_5">
     <g id="line2d_10">
      <g>
       <use xlink:href="#m59e283c310" x="55.844844" y="181.292561" style="stroke: #000000; stroke-width: 0.8"/>
      </g>
     </g>
     <g id="text_11">
      <text style="font-size: 9px; font-family: 'Meiryo', 'Yu Gothic', 'Hiragino Sans', 'Noto Sans JP', 'DejaVu Sans', sans-serif; text-anchor: end" x="48.844844" y="185.243244" transform="rotate(-0 48.844844 185.243244)">0.00</text>
     </g>
    </g>
    <g id="ytick_6">
     <g id="line2d_11">
      <g>
       <use xlink:href="#m59e283c310" x="55.844844" y="156.553478" style="stroke: #000000; stroke-width: 0.8"/>
      </g>
     </g>
     <g id="text_12">
      <text style="font-size: 9px; font-family: 'Meiryo', 'Yu Gothic', 'Hiragino Sans', 'Noto Sans JP', 'DejaVu Sans', sans-serif; text-anchor: end" x="48.844844" y="160.504162" transform="rotate(-0 48.844844 160.504162)">0.25</text>
     </g>
    </g>
    <g id="ytick_7">
     <g id="line2d_12">
      <g>
       <use xlink:href="#m59e283c310" x="55.844844" y="131.814396" style="stroke: #000000; stroke-width: 0.8"/>
      </g>
     </g>
     <g id="text_13">
      <text style="font-size: 9px; font-family: 'Meiryo', 'Yu Gothic', 'Hiragino Sans', 'Noto Sans JP', 'DejaVu Sans', sans-serif; text-anchor: end" x="48.844844" y="135.76508" transform="rotate(-0 48.844844 135.76508)">0.50</text>
     </g>
    </g>
    <g id="ytick_8">
     <g id="line2d_13">
      <g>
       <use xlink:href="#m59e283c310" x="55.844844" y="107.075314" style="stroke: #000000; stroke-width: 0.8"/>
      </g>
     </g>
     <g id="text_14">
      <text style="font-size: 9px; font-family: 'Meiryo', 'Yu Gothic', 'Hiragino Sans', 'Noto Sans JP', 'DejaVu Sans', sans-serif; text-anchor: end" x="48.844844" y="111.025997" transform="rotate(-0 48.844844 111.025997)">0.75</text>
     </g>
    </g>
    <g id="ytick_9">
     <g id="line2d_14">
      <g>
       <use xlink:href="#m59e283c310" x="55.844844" y="82.336232" style="stroke: #000000; stroke-width: 0.8"/>
      </g>
     </g>
     <g id="text_15">
      <text style="font-size: 9px; font-family: 'Meiryo', 'Yu Gothic', 'Hiragino Sans', 'Noto Sans JP', 'DejaVu Sans', sans-serif; text-anchor: end" x="48.844844" y="86.286915" transform="rotate(-0 48.844844 86.286915)">1.00</text>
     </g>
    </g>
    <g id="text_16">
     <text style="font-size: 10.5px; font-family: 'Meiryo', 'Yu Gothic', 'Hiragino Sans', 'Noto Sans JP', 'DejaVu Sans', sans-serif; text-anchor: middle" x="16.418262" y="181.292561" transform="rotate(-90 16.418262 181.292561)">DREAMER誘発評定平均</text>
    </g>
   </g>
   <g id="line2d_15">
    <path d="M 55.844844 285.196706
L 263.653134 77.388415
" clip-path="url(#p6516d9917a)" style="fill: none; stroke-dasharray: 3.7,1.6; stroke-dashoffset: 0; stroke: #b8b8b8"/>
   </g>
   <g id="line2d_16">
    <path d="M 60.79266 240.193798
L 62.791778 239.153425
L 64.790896 238.113052
L 66.790013 237.072678
L 68.789131 236.032305
L 70.788249 234.991932
L 72.787367 233.951559
L 74.786484 232.911186
L 76.785602 231.870813
L 78.78472 230.83044
L 80.783838 229.790066
L 82.782956 228.749693
L 84.782073 227.70932
L 86.781191 226.668947
L 88.780309 225.628574
L 90.779427 224.588201
L 92.778544 223.547828
L 94.777662 222.507455
L 96.77678 221.467081
L 98.775898 220.426708
L 100.775015 219.386335
L 102.774133 218.345962
L 104.773251 217.305589
L 106.772369 216.265216
L 108.771486 215.224843
L 110.770604 214.18447
L 112.769722 213.144096
L 114.76884 212.103723
L 116.767957 211.06335
L 118.767075 210.022977
L 120.766193 208.982604
L 122.765311 207.942231
L 124.764428 206.901858
L 126.763546 205.861484
L 128.762664 204.821111
L 130.761782 203.780738
L 132.760899 202.740365
L 134.760017 201.699992
L 136.759135 200.659619
L 138.758253 199.619246
L 140.75737 198.578873
L 142.756488 197.538499
L 144.755606 196.498126
L 146.754724 195.457753
L 148.753841 194.41738
L 150.752959 193.377007
L 152.752077 192.336634
L 154.751195 191.296261
L 156.750312 190.255887
L 158.74943 189.215514
L 160.748548 188.175141
L 162.747666 187.134768
L 164.746783 186.094395
L 166.745901 185.054022
L 168.745019 184.013649
L 170.744137 182.973276
L 172.743254 181.932902
L 174.742372 180.892529
L 176.74149 179.852156
L 178.740608 178.811783
L 180.739726 177.77141
L 182.738843 176.731037
L 184.737961 175.690664
L 186.737079 174.650291
L 188.736197 173.609917
L 190.735314 172.569544
L 192.734432 171.529171
L 194.73355 170.488798
L 196.732668 169.448425
L 198.731785 168.408052
L 200.730903 167.367679
L 202.730021 166.327305
L 204.729139 165.286932
L 206.728256 164.246559
L 208.727374 163.206186
L 210.726492 162.165813
L 212.72561 161.12544
L 214.724727 160.085067
L 216.723845 159.044694
L 218.722963 158.00432
L 220.722081 156.963947
L 222.721198 155.923574
L 224.720316 154.883201
L 226.719434 153.842828
L 228.718552 152.802455
L 230.717669 151.762082
L 232.716787 150.721708
L 234.715905 149.681335
L 236.715023 148.640962
L 238.71414 147.600589
L 240.713258 146.560216
L 242.712376 145.519843
L 244.711494 144.47947
L 246.710611 143.439097
L 248.709729 142.398723
L 250.708847 141.35835
L 252.707965 140.317977
L 254.707082 139.277604
L 256.7062 138.237231
L 258.705318 137.196858
" clip-path="url(#p6516d9917a)" style="fill: none; stroke: #000000; stroke-width: 2; stroke-linecap: square"/>
   </g>
   <g id="patch_3">
    <path d="M 55.844844 285.196706
L 55.844844 77.388415
" style="fill: none; stroke: #000000; stroke-width: 0.8; stroke-linejoin: miter; stroke-linecap: square"/>
   </g>
   <g id="patch_4">
    <path d="M 55.844844 285.196706
L 263.653134 285.196706
" style="fill: none; stroke: #000000; stroke-width: 0.8; stroke-linejoin: miter; stroke-linecap: square"/>
   </g>
   <g id="PathCollection_1">
    <defs>
     <path id="mc0b678ddac" d="M 0 3.937004
C 1.044106 3.937004 2.045588 3.522176 2.783882 2.783882
C 3.522176 2.045588 3.937004 1.044106 3.937004 0
C 3.937004 -1.044106 3.522176 -2.045588 2.783882 -2.783882
C 2.045588 -3.522176 1.044106 -3.937004 0 -3.937004
C -1.044106 -3.937004 -2.045588 -3.522176 -2.783882 -2.783882
C -3.522176 -2.045588 -3.937004 -1.044106 -3.937004 0
C -3.937004 1.044106 -3.522176 2.045588 -2.783882 2.783882
C -2.045588 3.522176 -1.044106 3.937004 0 3.937004
z
" style="stroke: #ffffff; stroke-width: 0.7"/>
    </defs>
    <g clip-path="url(#p6516d9917a)">
     <use xlink:href="#mc0b678ddac" x="244.653519" y="118.907049" style="stroke: #ffffff; stroke-width: 0.7"/>
     <use xlink:href="#mc0b678ddac" x="93.844074" y="238.300011" style="stroke: #ffffff; stroke-width: 0.7"/>
     <use xlink:href="#mc0b678ddac" x="245.643083" y="153.326642" style="stroke: #ffffff; stroke-width: 0.7"/>
     <use xlink:href="#mc0b678ddac" x="71.084118" y="209.25848" style="stroke: #ffffff; stroke-width: 0.7"/>
     <use xlink:href="#mc0b678ddac" x="238.122402" y="159.780315" style="stroke: #ffffff; stroke-width: 0.7"/>
     <use xlink:href="#mc0b678ddac" x="75.240284" y="217.863378" style="stroke: #ffffff; stroke-width: 0.7"/>
     <use xlink:href="#mc0b678ddac" x="250.788812" y="109.226538" style="stroke: #ffffff; stroke-width: 0.7"/>
     <use xlink:href="#mc0b678ddac" x="71.084118" y="257.661032" style="stroke: #ffffff; stroke-width: 0.7"/>
     <use xlink:href="#mc0b678ddac" x="233.966236" y="188.821846" style="stroke: #ffffff; stroke-width: 0.7"/>
    </g>
   </g>
   <g id="text_17">
    <text style="font-size: 8.5px; font-family: 'Meiryo', 'Yu Gothic', 'Hiragino Sans', 'Noto Sans JP', 'DejaVu Sans', sans-serif; text-anchor: start" x="250.653519" y="128.907049" transform="rotate(-0 250.653519 128.907049)">愉快</text>
   </g>
   <g id="text_18">
    <text style="font-size: 8.5px; font-family: 'Meiryo', 'Yu Gothic', 'Hiragino Sans', 'Noto Sans JP', 'DejaVu Sans', sans-serif; text-anchor: start" x="97.844074" y="234.300011" transform="rotate(-0 97.844074 234.300011)">怒り</text>
   </g>
   <g id="text_19">
    <text style="font-size: 8.5px; font-family: 'Meiryo', 'Yu Gothic', 'Hiragino Sans', 'Noto Sans JP', 'DejaVu Sans', sans-serif; text-anchor: start" x="241.643083" y="139.326642" transform="rotate(-0 241.643083 139.326642)">平静</text>
   </g>
   <g id="text_20">
    <text style="font-size: 8.5px; font-family: 'Meiryo', 'Yu Gothic', 'Hiragino Sans', 'Noto Sans JP', 'DejaVu Sans', sans-serif; text-anchor: start" x="75.084118" y="205.25848" transform="rotate(-0 75.084118 205.25848)">嫌悪</text>
   </g>
   <g id="text_21">
    <text style="font-size: 8.5px; font-family: 'Meiryo', 'Yu Gothic', 'Hiragino Sans', 'Noto Sans JP', 'DejaVu Sans', sans-serif; text-anchor: start" x="244.122402" y="177.780315" transform="rotate(-0 244.122402 177.780315)">興奮</text>
   </g>
   <g id="text_22">
    <text style="font-size: 8.5px; font-family: 'Meiryo', 'Yu Gothic', 'Hiragino Sans', 'Noto Sans JP', 'DejaVu Sans', sans-serif; text-anchor: start" x="79.240284" y="213.863378" transform="rotate(-0 79.240284 213.863378)">恐怖</text>
   </g>
   <g id="text_23">
    <text style="font-size: 8.5px; font-family: 'Meiryo', 'Yu Gothic', 'Hiragino Sans', 'Noto Sans JP', 'DejaVu Sans', sans-serif; text-anchor: start" x="256.788812" y="99.226538" transform="rotate(-0 256.788812 99.226538)">幸福</text>
   </g>
   <g id="text_24">
    <text style="font-size: 8.5px; font-family: 'Meiryo', 'Yu Gothic', 'Hiragino Sans', 'Noto Sans JP', 'DejaVu Sans', sans-serif; text-anchor: start" x="75.084118" y="253.661032" transform="rotate(-0 75.084118 253.661032)">悲しみ</text>
   </g>
   <g id="text_25">
    <text style="font-size: 8.5px; font-family: 'Meiryo', 'Yu Gothic', 'Hiragino Sans', 'Noto Sans JP', 'DejaVu Sans', sans-serif; text-anchor: start" x="239.966236" y="202.821846" transform="rotate(-0 239.966236 202.821846)">驚き</text>
   </g>
   <g id="text_26">
    <text style="font-weight: 700; font-size: 12.5px; font-family: 'Meiryo', 'Yu Gothic', 'Hiragino Sans', 'Noto Sans JP', 'DejaVu Sans', sans-serif" transform="translate(96.729458 52.638415)">快―不快（Valence）</text>
    <text style="font-weight: 700; font-size: 12.5px; font-family: 'Meiryo', 'Yu Gothic', 'Hiragino Sans', 'Noto Sans JP', 'DejaVu Sans', sans-serif" transform="translate(79.169888 71.388415)">r = 0.88、正確 p = 0.006</text>
   </g>
  </g>
  <g id="axes_2">
   <g id="patch_5">
    <path d="M 347.763387 285.196706
L 555.571678 285.196706
L 555.571678 77.388415
L 347.763387 77.388415
z
" style="fill: #ffffff"/>
   </g>
   <g id="matplotlib.axis_3">
    <g id="xtick_6">
     <g id="line2d_17">
      <g>
       <use xlink:href="#m0950bd5f28" x="352.711204" y="285.196706" style="stroke: #000000; stroke-width: 0.8"/>
      </g>
     </g>
     <g id="text_27">
      <text style="font-size: 9px; font-family: 'Meiryo', 'Yu Gothic', 'Hiragino Sans', 'Noto Sans JP', 'DejaVu Sans', sans-serif; text-anchor: middle" x="352.711204" y="300.098073" transform="rotate(-0 352.711204 300.098073)">−1.0</text>
     </g>
    </g>
    <g id="xtick_7">
     <g id="line2d_18">
      <g>
       <use xlink:href="#m0950bd5f28" x="402.189368" y="285.196706" style="stroke: #000000; stroke-width: 0.8"/>
      </g>
     </g>
     <g id="text_28">
      <text style="font-size: 9px; font-family: 'Meiryo', 'Yu Gothic', 'Hiragino Sans', 'Noto Sans JP', 'DejaVu Sans', sans-serif; text-anchor: middle" x="402.189368" y="300.098073" transform="rotate(-0 402.189368 300.098073)">−0.5</text>
     </g>
    </g>
    <g id="xtick_8">
     <g id="line2d_19">
      <g>
       <use xlink:href="#m0950bd5f28" x="451.667533" y="285.196706" style="stroke: #000000; stroke-width: 0.8"/>
      </g>
     </g>
     <g id="text_29">
      <text style="font-size: 9px; font-family: 'Meiryo', 'Yu Gothic', 'Hiragino Sans', 'Noto Sans JP', 'DejaVu Sans', sans-serif; text-anchor: middle" x="451.667533" y="300.098073" transform="rotate(-0 451.667533 300.098073)">0.0</text>
     </g>
    </g>
    <g id="xtick_9">
     <g id="line2d_20">
      <g>
       <use xlink:href="#m0950bd5f28" x="501.145697" y="285.196706" style="stroke: #000000; stroke-width: 0.8"/>
      </g>
     </g>
     <g id="text_30">
      <text style="font-size: 9px; font-family: 'Meiryo', 'Yu Gothic', 'Hiragino Sans', 'Noto Sans JP', 'DejaVu Sans', sans-serif; text-anchor: middle" x="501.145697" y="300.098073" transform="rotate(-0 501.145697 300.098073)">0.5</text>
     </g>
    </g>
    <g id="xtick_10">
     <g id="line2d_21">
      <g>
       <use xlink:href="#m0950bd5f28" x="550.623861" y="285.196706" style="stroke: #000000; stroke-width: 0.8"/>
      </g>
     </g>
     <g id="text_31">
      <text style="font-size: 9px; font-family: 'Meiryo', 'Yu Gothic', 'Hiragino Sans', 'Noto Sans JP', 'DejaVu Sans', sans-serif; text-anchor: middle" x="550.623861" y="300.098073" transform="rotate(-0 550.623861 300.098073)">1.0</text>
     </g>
    </g>
    <g id="text_32">
     <text style="font-size: 10.5px; font-family: 'Meiryo', 'Yu Gothic', 'Hiragino Sans', 'Noto Sans JP', 'DejaVu Sans', sans-serif; text-anchor: middle" x="451.667533" y="314.414968" transform="rotate(-0 451.667533 314.414968)">NRC語彙規範値</text>
    </g>
   </g>
   <g id="matplotlib.axis_4">
    <g id="ytick_10">
     <g id="line2d_22">
      <g>
       <use xlink:href="#m59e283c310" x="347.763387" y="280.248889" style="stroke: #000000; stroke-width: 0.8"/>
      </g>
     </g>
    </g>
    <g id="ytick_11">
     <g id="line2d_23">
      <g>
       <use xlink:href="#m59e283c310" x="347.763387" y="255.509807" style="stroke: #000000; stroke-width: 0.8"/>
      </g>
     </g>
    </g>
    <g id="ytick_12">
     <g id="line2d_24">
      <g>
       <use xlink:href="#m59e283c310" x="347.763387" y="230.770725" style="stroke: #000000; stroke-width: 0.8"/>
      </g>
     </g>
    </g>
    <g id="ytick_13">
     <g id="line2d_25">
      <g>
       <use xlink:href="#m59e283c310" x="347.763387" y="206.031643" style="stroke: #000000; stroke-width: 0.8"/>
      </g>
     </g>
    </g>
    <g id="ytick_14">
     <g id="line2d_26">
      <g>
       <use xlink:href="#m59e283c310" x="347.763387" y="181.292561" style="stroke: #000000; stroke-width: 0.8"/>
      </g>
     </g>
    </g>
    <g id="ytick_15">
     <g id="line2d_27">
      <g>
       <use xlink:href="#m59e283c310" x="347.763387" y="156.553478" style="stroke: #000000; stroke-width: 0.8"/>
      </g>
     </g>
    </g>
    <g id="ytick_16">
     <g id="line2d_28">
      <g>
       <use xlink:href="#m59e283c310" x="347.763387" y="131.814396" style="stroke: #000000; stroke-width: 0.8"/>
      </g>
     </g>
    </g>
    <g id="ytick_17">
     <g id="line2d_29">
      <g>
       <use xlink:href="#m59e283c310" x="347.763387" y="107.075314" style="stroke: #000000; stroke-width: 0.8"/>
      </g>
     </g>
    </g>
    <g id="ytick_18">
     <g id="line2d_30">
      <g>
       <use xlink:href="#m59e283c310" x="347.763387" y="82.336232" style="stroke: #000000; stroke-width: 0.8"/>
      </g>
     </g>
    </g>
   </g>
   <g id="line2d_31">
    <path d="M 347.763387 285.196706
L 555.571678 77.388415
" clip-path="url(#p894999c045)" style="fill: none; stroke-dasharray: 3.7,1.6; stroke-dashoffset: 0; stroke: #b8b8b8"/>
   </g>
   <g id="line2d_32">
    <path d="M 352.711204 214.485613
L 354.710321 213.804819
L 356.709439 213.124025
L 358.708557 212.443231
L 360.707675 211.762437
L 362.706792 211.081643
L 364.70591 210.400849
L 366.705028 209.720055
L 368.704146 209.03926
L 370.703263 208.358466
L 372.702381 207.677672
L 374.701499 206.996878
L 376.700617 206.316084
L 378.699734 205.63529
L 380.698852 204.954496
L 382.69797 204.273702
L 384.697088 203.592908
L 386.696205 202.912114
L 388.695323 202.23132
L 390.694441 201.550526
L 392.693559 200.869732
L 394.692676 200.188938
L 396.691794 199.508144
L 398.690912 198.82735
L 400.69003 198.146556
L 402.689147 197.465762
L 404.688265 196.784968
L 406.687383 196.104174
L 408.686501 195.42338
L 410.685619 194.742585
L 412.684736 194.061791
L 414.683854 193.380997
L 416.682972 192.700203
L 418.68209 192.019409
L 420.681207 191.338615
L 422.680325 190.657821
L 424.679443 189.977027
L 426.678561 189.296233
L 428.677678 188.615439
L 430.676796 187.934645
L 432.675914 187.253851
L 434.675032 186.573057
L 436.674149 185.892263
L 438.673267 185.211469
L 440.672385 184.530675
L 442.671503 183.849881
L 444.67062 183.169087
L 446.669738 182.488293
L 448.668856 181.807499
L 450.667974 181.126704
L 452.667091 180.44591
L 454.666209 179.765116
L 456.665327 179.084322
L 458.664445 178.403528
L 460.663562 177.722734
L 462.66268 177.04194
L 464.661798 176.361146
L 466.660916 175.680352
L 468.660033 174.999558
L 470.659151 174.318764
L 472.658269 173.63797
L 474.657387 172.957176
L 476.656504 172.276382
L 478.655622 171.595588
L 480.65474 170.914794
L 482.653858 170.234
L 484.652975 169.553206
L 486.652093 168.872412
L 488.651211 168.191618
L 490.650329 167.510823
L 492.649446 166.830029
L 494.648564 166.149235
L 496.647682 165.468441
L 498.6468 164.787647
L 500.645918 164.106853
L 502.645035 163.426059
L 504.644153 162.745265
L 506.643271 162.064471
L 508.642389 161.383677
L 510.641506 160.702883
L 512.640624 160.022089
L 514.639742 159.341295
L 516.63886 158.660501
L 518.637977 157.979707
L 520.637095 157.298913
L 522.636213 156.618119
L 524.635331 155.937325
L 526.634448 155.256531
L 528.633566 154.575737
L 530.632684 153.894943
L 532.631802 153.214148
L 534.630919 152.533354
L 536.630037 151.85256
L 538.629155 151.171766
L 540.628273 150.490972
L 542.62739 149.810178
L 544.626508 149.129384
L 546.625626 148.44859
L 548.624744 147.767796
L 550.623861 147.087002
" clip-path="url(#p894999c045)" style="fill: none; stroke: #000000; stroke-width: 2; stroke-linecap: square"/>
   </g>
   <g id="patch_6">
    <path d="M 347.763387 285.196706
L 347.763387 77.388415
" style="fill: none; stroke: #000000; stroke-width: 0.8; stroke-linejoin: miter; stroke-linecap: square"/>
   </g>
   <g id="patch_7">
    <path d="M 347.763387 285.196706
L 555.571678 285.196706
" style="fill: none; stroke: #000000; stroke-width: 0.8; stroke-linejoin: miter; stroke-linecap: square"/>
   </g>
   <g id="PathCollection_2">
    <defs>
     <path id="mcae01a4b30" d="M -3.937004 3.937004
L 3.937004 3.937004
L 3.937004 -3.937004
L -3.937004 -3.937004
z
" style="stroke: #ffffff; stroke-width: 0.7"/>
    </defs>
    <g clip-path="url(#p894999c045)">
     <use xlink:href="#mcae01a4b30" x="518.364098" y="170.536438" style="stroke: #ffffff; stroke-width: 0.7"/>
     <use xlink:href="#mcae01a4b30" x="523.905653" y="176.990111" style="stroke: #ffffff; stroke-width: 0.7"/>
     <use xlink:href="#mcae01a4b30" x="363.101618" y="225.392664" style="stroke: #ffffff; stroke-width: 0.7"/>
     <use xlink:href="#mcae01a4b30" x="506.093513" y="153.326642" style="stroke: #ffffff; stroke-width: 0.7"/>
     <use xlink:href="#mcae01a4b30" x="488.083462" y="155.477866" style="stroke: #ffffff; stroke-width: 0.7"/>
     <use xlink:href="#mcae01a4b30" x="518.957836" y="147.94858" style="stroke: #ffffff; stroke-width: 0.7"/>
     <use xlink:href="#mcae01a4b30" x="497.583269" y="159.780315" style="stroke: #ffffff; stroke-width: 0.7"/>
     <use xlink:href="#mcae01a4b30" x="409.710049" y="181.292561" style="stroke: #ffffff; stroke-width: 0.7"/>
     <use xlink:href="#mcae01a4b30" x="525.884779" y="158.704703" style="stroke: #ffffff; stroke-width: 0.7"/>
    </g>
   </g>
   <g id="text_33">
    <text style="font-size: 8.5px; font-family: 'Meiryo', 'Yu Gothic', 'Hiragino Sans', 'Noto Sans JP', 'DejaVu Sans', sans-serif; text-anchor: start" x="484.364098" y="194.536438" transform="rotate(-0 484.364098 194.536438)">愉快</text>
   </g>
   <g id="text_34">
    <text style="font-size: 8.5px; font-family: 'Meiryo', 'Yu Gothic', 'Hiragino Sans', 'Noto Sans JP', 'DejaVu Sans', sans-serif; text-anchor: start" x="531.905653" y="201.990111" transform="rotate(-0 531.905653 201.990111)">怒り</text>
   </g>
   <g id="text_35">
    <text style="font-size: 8.5px; font-family: 'Meiryo', 'Yu Gothic', 'Hiragino Sans', 'Noto Sans JP', 'DejaVu Sans', sans-serif; text-anchor: start" x="367.101618" y="220.392664" transform="rotate(-0 367.101618 220.392664)">平静</text>
   </g>
   <g id="text_36">
    <text style="font-size: 8.5px; font-family: 'Meiryo', 'Yu Gothic', 'Hiragino Sans', 'Noto Sans JP', 'DejaVu Sans', sans-serif; text-anchor: start" x="516.093513" y="170.326642" transform="rotate(-0 516.093513 170.326642)">嫌悪</text>
   </g>
   <g id="text_37">
    <text style="font-size: 8.5px; font-family: 'Meiryo', 'Yu Gothic', 'Hiragino Sans', 'Noto Sans JP', 'DejaVu Sans', sans-serif; text-anchor: start" x="458.083462" y="146.477866" transform="rotate(-0 458.083462 146.477866)">興奮</text>
   </g>
   <g id="text_38">
    <text style="font-size: 8.5px; font-family: 'Meiryo', 'Yu Gothic', 'Hiragino Sans', 'Noto Sans JP', 'DejaVu Sans', sans-serif; text-anchor: start" x="526.957836" y="133.94858" transform="rotate(-0 526.957836 133.94858)">恐怖</text>
   </g>
   <g id="text_39">
    <text style="font-size: 8.5px; font-family: 'Meiryo', 'Yu Gothic', 'Hiragino Sans', 'Noto Sans JP', 'DejaVu Sans', sans-serif; text-anchor: start" x="449.583269" y="175.780315" transform="rotate(-0 449.583269 175.780315)">幸福</text>
   </g>
   <g id="text_40">
    <text style="font-size: 8.5px; font-family: 'Meiryo', 'Yu Gothic', 'Hiragino Sans', 'Noto Sans JP', 'DejaVu Sans', sans-serif; text-anchor: start" x="413.710049" y="176.292561" transform="rotate(-0 413.710049 176.292561)">悲しみ</text>
   </g>
   <g id="text_41">
    <text style="font-size: 8.5px; font-family: 'Meiryo', 'Yu Gothic', 'Hiragino Sans', 'Noto Sans JP', 'DejaVu Sans', sans-serif; text-anchor: start" x="543.884779" y="174.704703" transform="rotate(-0 543.884779 174.704703)">驚き</text>
   </g>
   <g id="text_42">
    <text style="font-weight: 700; font-size: 12.5px; font-family: 'Meiryo', 'Yu Gothic', 'Hiragino Sans', 'Noto Sans JP', 'DejaVu Sans', sans-serif" transform="translate(395.319876 52.638415)">覚醒度（Arousal）</text>
    <text style="font-weight: 700; font-size: 12.5px; font-family: 'Meiryo', 'Yu Gothic', 'Hiragino Sans', 'Noto Sans JP', 'DejaVu Sans', sans-serif" transform="translate(371.088431 71.388415)">r = 0.83、正確 p = 0.017</text>
   </g>
  </g>
  <g id="axes_3">
   <g id="patch_8">
    <path d="M 639.681931 285.196706
L 847.490221 285.196706
L 847.490221 77.388415
L 639.681931 77.388415
z
" style="fill: #ffffff"/>
   </g>
   <g id="matplotlib.axis_5">
    <g id="xtick_11">
     <g id="line2d_33">
      <g>
       <use xlink:href="#m0950bd5f28" x="644.629747" y="285.196706" style="stroke: #000000; stroke-width: 0.8"/>
      </g>
     </g>
     <g id="text_43">
      <text style="font-size: 9px; font-family: 'Meiryo', 'Yu Gothic', 'Hiragino Sans', 'Noto Sans JP', 'DejaVu Sans', sans-serif; text-anchor: middle" x="644.629747" y="300.098073" transform="rotate(-0 644.629747 300.098073)">−1.0</text>
     </g>
    </g>
    <g id="xtick_12">
     <g id="line2d_34">
      <g>
       <use xlink:href="#m0950bd5f28" x="694.107911" y="285.196706" style="stroke: #000000; stroke-width: 0.8"/>
      </g>
     </g>
     <g id="text_44">
      <text style="font-size: 9px; font-family: 'Meiryo', 'Yu Gothic', 'Hiragino Sans', 'Noto Sans JP', 'DejaVu Sans', sans-serif; text-anchor: middle" x="694.107911" y="300.098073" transform="rotate(-0 694.107911 300.098073)">−0.5</text>
     </g>
    </g>
    <g id="xtick_13">
     <g id="line2d_35">
      <g>
       <use xlink:href="#m0950bd5f28" x="743.586076" y="285.196706" style="stroke: #000000; stroke-width: 0.8"/>
      </g>
     </g>
     <g id="text_45">
      <text style="font-size: 9px; font-family: 'Meiryo', 'Yu Gothic', 'Hiragino Sans', 'Noto Sans JP', 'DejaVu Sans', sans-serif; text-anchor: middle" x="743.586076" y="300.098073" transform="rotate(-0 743.586076 300.098073)">0.0</text>
     </g>
    </g>
    <g id="xtick_14">
     <g id="line2d_36">
      <g>
       <use xlink:href="#m0950bd5f28" x="793.06424" y="285.196706" style="stroke: #000000; stroke-width: 0.8"/>
      </g>
     </g>
     <g id="text_46">
      <text style="font-size: 9px; font-family: 'Meiryo', 'Yu Gothic', 'Hiragino Sans', 'Noto Sans JP', 'DejaVu Sans', sans-serif; text-anchor: middle" x="793.06424" y="300.098073" transform="rotate(-0 793.06424 300.098073)">0.5</text>
     </g>
    </g>
    <g id="xtick_15">
     <g id="line2d_37">
      <g>
       <use xlink:href="#m0950bd5f28" x="842.542405" y="285.196706" style="stroke: #000000; stroke-width: 0.8"/>
      </g>
     </g>
     <g id="text_47">
      <text style="font-size: 9px; font-family: 'Meiryo', 'Yu Gothic', 'Hiragino Sans', 'Noto Sans JP', 'DejaVu Sans', sans-serif; text-anchor: middle" x="842.542405" y="300.098073" transform="rotate(-0 842.542405 300.098073)">1.0</text>
     </g>
    </g>
    <g id="text_48">
     <text style="font-size: 10.5px; font-family: 'Meiryo', 'Yu Gothic', 'Hiragino Sans', 'Noto Sans JP', 'DejaVu Sans', sans-serif; text-anchor: middle" x="743.586076" y="314.414968" transform="rotate(-0 743.586076 314.414968)">NRC語彙規範値</text>
    </g>
   </g>
   <g id="matplotlib.axis_6">
    <g id="ytick_19">
     <g id="line2d_38">
      <g>
       <use xlink:href="#m59e283c310" x="639.681931" y="280.248889" style="stroke: #000000; stroke-width: 0.8"/>
      </g>
     </g>
    </g>
    <g id="ytick_20">
     <g id="line2d_39">
      <g>
       <use xlink:href="#m59e283c310" x="639.681931" y="255.509807" style="stroke: #000000; stroke-width: 0.8"/>
      </g>
     </g>
    </g>
    <g id="ytick_21">
     <g id="line2d_40">
      <g>
       <use xlink:href="#m59e283c310" x="639.681931" y="230.770725" style="stroke: #000000; stroke-width: 0.8"/>
      </g>
     </g>
    </g>
    <g id="ytick_22">
     <g id="line2d_41">
      <g>
       <use xlink:href="#m59e283c310" x="639.681931" y="206.031643" style="stroke: #000000; stroke-width: 0.8"/>
      </g>
     </g>
    </g>
    <g id="ytick_23">
     <g id="line2d_42">
      <g>
       <use xlink:href="#m59e283c310" x="639.681931" y="181.292561" style="stroke: #000000; stroke-width: 0.8"/>
      </g>
     </g>
    </g>
    <g id="ytick_24">
     <g id="line2d_43">
      <g>
       <use xlink:href="#m59e283c310" x="639.681931" y="156.553478" style="stroke: #000000; stroke-width: 0.8"/>
      </g>
     </g>
    </g>
    <g id="ytick_25">
     <g id="line2d_44">
      <g>
       <use xlink:href="#m59e283c310" x="639.681931" y="131.814396" style="stroke: #000000; stroke-width: 0.8"/>
      </g>
     </g>
    </g>
    <g id="ytick_26">
     <g id="line2d_45">
      <g>
       <use xlink:href="#m59e283c310" x="639.681931" y="107.075314" style="stroke: #000000; stroke-width: 0.8"/>
      </g>
     </g>
    </g>
    <g id="ytick_27">
     <g id="line2d_46">
      <g>
       <use xlink:href="#m59e283c310" x="639.681931" y="82.336232" style="stroke: #000000; stroke-width: 0.8"/>
      </g>
     </g>
    </g>
   </g>
   <g id="line2d_47">
    <path d="M 639.681931 285.196706
L 847.490221 77.388415
" clip-path="url(#pd2bd4f5421)" style="fill: none; stroke-dasharray: 3.7,1.6; stroke-dashoffset: 0; stroke: #b8b8b8"/>
   </g>
   <g id="line2d_48">
    <path d="M 644.629747 156.998878
L 646.628865 157.108659
L 648.627983 157.21844
L 650.6271 157.32822
L 652.626218 157.438001
L 654.625336 157.547782
L 656.624454 157.657562
L 658.623571 157.767343
L 660.622689 157.877124
L 662.621807 157.986904
L 664.620925 158.096685
L 666.620042 158.206466
L 668.61916 158.316246
L 670.618278 158.426027
L 672.617396 158.535808
L 674.616513 158.645588
L 676.615631 158.755369
L 678.614749 158.86515
L 680.613867 158.97493
L 682.612984 159.084711
L 684.612102 159.194492
L 686.61122 159.304273
L 688.610338 159.414053
L 690.609455 159.523834
L 692.608573 159.633615
L 694.607691 159.743395
L 696.606809 159.853176
L 698.605926 159.962957
L 700.605044 160.072737
L 702.604162 160.182518
L 704.60328 160.292299
L 706.602397 160.402079
L 708.601515 160.51186
L 710.600633 160.621641
L 712.599751 160.731421
L 714.598868 160.841202
L 716.597986 160.950983
L 718.597104 161.060763
L 720.596222 161.170544
L 722.595339 161.280325
L 724.594457 161.390105
L 726.593575 161.499886
L 728.592693 161.609667
L 730.591811 161.719447
L 732.590928 161.829228
L 734.590046 161.939009
L 736.589164 162.048789
L 738.588282 162.15857
L 740.587399 162.268351
L 742.586517 162.378131
L 744.585635 162.487912
L 746.584753 162.597693
L 748.58387 162.707473
L 750.582988 162.817254
L 752.582106 162.927035
L 754.581224 163.036815
L 756.580341 163.146596
L 758.579459 163.256377
L 760.578577 163.366157
L 762.577695 163.475938
L 764.576812 163.585719
L 766.57593 163.695499
L 768.575048 163.80528
L 770.574166 163.915061
L 772.573283 164.024841
L 774.572401 164.134622
L 776.571519 164.244403
L 778.570637 164.354183
L 780.569754 164.463964
L 782.568872 164.573745
L 784.56799 164.683525
L 786.567108 164.793306
L 788.566225 164.903087
L 790.565343 165.012867
L 792.564461 165.122648
L 794.563579 165.232429
L 796.562696 165.342209
L 798.561814 165.45199
L 800.560932 165.561771
L 802.56005 165.671551
L 804.559167 165.781332
L 806.558285 165.891113
L 808.557403 166.000893
L 810.556521 166.110674
L 812.555638 166.220455
L 814.554756 166.330235
L 816.553874 166.440016
L 818.552992 166.549797
L 820.55211 166.659577
L 822.551227 166.769358
L 824.550345 166.879139
L 826.549463 166.988919
L 828.548581 167.0987
L 830.547698 167.208481
L 832.546816 167.318261
L 834.545934 167.428042
L 836.545052 167.537823
L 838.544169 167.647603
L 840.543287 167.757384
L 842.542405 167.867165
" clip-path="url(#pd2bd4f5421)" style="fill: none; stroke: #000000; stroke-width: 2; stroke-linecap: square"/>
   </g>
   <g id="patch_9">
    <path d="M 639.681931 285.196706
L 639.681931 77.388415
" style="fill: none; stroke: #000000; stroke-width: 0.8; stroke-linejoin: miter; stroke-linecap: square"/>
   </g>
   <g id="patch_10">
    <path d="M 639.681931 285.196706
L 847.490221 285.196706
" style="fill: none; stroke: #000000; stroke-width: 0.8; stroke-linejoin: miter; stroke-linecap: square"/>
   </g>
   <g id="PathCollection_3">
    <defs>
     <path id="m2c7e753a38" d="M 0 -3.937004
L -3.937004 3.937004
L 3.937004 3.937004
z
" style="stroke: #ffffff; stroke-width: 0.7"/>
    </defs>
    <g clip-path="url(#pd2bd4f5421)">
     <use xlink:href="#m2c7e753a38" x="803.553611" y="168.385213" style="stroke: #ffffff; stroke-width: 0.7"/>
     <use xlink:href="#m2c7e753a38" x="774.658363" y="163.007152" style="stroke: #ffffff; stroke-width: 0.7"/>
     <use xlink:href="#m2c7e753a38" x="723.893766" y="213.560929" style="stroke: #ffffff; stroke-width: 0.7"/>
     <use xlink:href="#m2c7e753a38" x="707.36806" y="140.419294" style="stroke: #ffffff; stroke-width: 0.7"/>
     <use xlink:href="#m2c7e753a38" x="789.3039" y="161.93154" style="stroke: #ffffff; stroke-width: 0.7"/>
     <use xlink:href="#m2c7e753a38" x="702.618156" y="147.94858" style="stroke: #ffffff; stroke-width: 0.7"/>
     <use xlink:href="#m2c7e753a38" x="812.855506" y="149.024192" style="stroke: #ffffff; stroke-width: 0.7"/>
     <use xlink:href="#m2c7e753a38" x="677.087423" y="145.797356" style="stroke: #ffffff; stroke-width: 0.7"/>
     <use xlink:href="#m2c7e753a38" x="755.856661" y="174.838887" style="stroke: #ffffff; stroke-width: 0.7"/>
    </g>
   </g>
   <g id="text_49">
    <text style="font-size: 8.5px; font-family: 'Meiryo', 'Yu Gothic', 'Hiragino Sans', 'Noto Sans JP', 'DejaVu Sans', sans-serif; text-anchor: start" x="811.553611" y="196.385213" transform="rotate(-0 811.553611 196.385213)">愉快</text>
   </g>
   <g id="text_50">
    <text style="font-size: 8.5px; font-family: 'Meiryo', 'Yu Gothic', 'Hiragino Sans', 'Noto Sans JP', 'DejaVu Sans', sans-serif; text-anchor: start" x="782.658363" y="149.007152" transform="rotate(-0 782.658363 149.007152)">怒り</text>
   </g>
   <g id="text_51">
    <text style="font-size: 8.5px; font-family: 'Meiryo', 'Yu Gothic', 'Hiragino Sans', 'Noto Sans JP', 'DejaVu Sans', sans-serif; text-anchor: start" x="731.893766" y="205.560929" transform="rotate(-0 731.893766 205.560929)">平静</text>
   </g>
   <g id="text_52">
    <text style="font-size: 8.5px; font-family: 'Meiryo', 'Yu Gothic', 'Hiragino Sans', 'Noto Sans JP', 'DejaVu Sans', sans-serif; text-anchor: start" x="715.36806" y="126.419294" transform="rotate(-0 715.36806 126.419294)">嫌悪</text>
   </g>
   <g id="text_53">
    <text style="font-size: 8.5px; font-family: 'Meiryo', 'Yu Gothic', 'Hiragino Sans', 'Noto Sans JP', 'DejaVu Sans', sans-serif; text-anchor: start" x="797.3039" y="179.93154" transform="rotate(-0 797.3039 179.93154)">興奮</text>
   </g>
   <g id="text_54">
    <text style="font-size: 8.5px; font-family: 'Meiryo', 'Yu Gothic', 'Hiragino Sans', 'Noto Sans JP', 'DejaVu Sans', sans-serif; text-anchor: start" x="710.618156" y="165.94858" transform="rotate(-0 710.618156 165.94858)">恐怖</text>
   </g>
   <g id="text_55">
    <text style="font-size: 8.5px; font-family: 'Meiryo', 'Yu Gothic', 'Hiragino Sans', 'Noto Sans JP', 'DejaVu Sans', sans-serif; text-anchor: start" x="820.855506" y="141.024192" transform="rotate(-0 820.855506 141.024192)">幸福</text>
   </g>
   <g id="text_56">
    <text style="font-size: 8.5px; font-family: 'Meiryo', 'Yu Gothic', 'Hiragino Sans', 'Noto Sans JP', 'DejaVu Sans', sans-serif; text-anchor: start" x="635.087423" y="137.797356" transform="rotate(-0 635.087423 137.797356)">悲しみ</text>
   </g>
   <g id="text_57">
    <text style="font-size: 8.5px; font-family: 'Meiryo', 'Yu Gothic', 'Hiragino Sans', 'Noto Sans JP', 'DejaVu Sans', sans-serif; text-anchor: start" x="763.856661" y="166.838887" transform="rotate(-0 763.856661 166.838887)">驚き</text>
   </g>
   <g id="text_58">
    <text style="font-weight: 700; font-size: 12.5px; font-family: 'Meiryo', 'Yu Gothic', 'Hiragino Sans', 'Noto Sans JP', 'DejaVu Sans', sans-serif" transform="translate(675.285295 52.638415)">支配性（Dominance）</text>
    <text style="font-weight: 700; font-size: 12.5px; font-family: 'Meiryo', 'Yu Gothic', 'Hiragino Sans', 'Noto Sans JP', 'DejaVu Sans', sans-serif" transform="translate(660.083146 71.388415)">r = -0.12、正確 p = 0.792</text>
   </g>
  </g>
  <g id="text_59">
   <text style="font-weight: 700; font-size: 14px; font-family: 'Meiryo', 'Yu Gothic', 'Hiragino Sans', 'Noto Sans JP', 'DejaVu Sans', sans-serif; text-anchor: middle" x="428.666692" y="19.491016" transform="rotate(-0 428.666692 19.491016)">次元別のクロスコンテクスト整合性</text>
  </g>
 </g>
 <defs>
  <clipPath id="p6516d9917a">
   <rect x="55.844844" y="77.388415" width="207.808291" height="207.808291"/>
  </clipPath>
  <clipPath id="p894999c045">
   <rect x="347.763387" y="77.388415" width="207.808291" height="207.808291"/>
  </clipPath>
  <clipPath id="pd2bd4f5421">
   <rect x="639.681931" y="77.388415" width="207.808291" height="207.808291"/>
  </clipPath>
 </defs>
</svg>
